<?xml version="1.0" encoding="utf-8"?>
<!-- Generator: Adobe Illustrator 27.0.1, SVG Export Plug-In . SVG Version: 6.00 Build 0)  -->
<svg version="1.1" id="Layer_1" xmlns="http://www.w3.org/2000/svg" xmlns:xlink="http://www.w3.org/1999/xlink" x="0px" y="0px"
	 viewBox="0 0 800 268" style="enable-background:new 0 0 800 268;" xml:space="preserve">
<style type="text/css">
	.st0{fill:#18122A;}
	.st1{fill:#981B1E;}
</style>
<g>
	<path class="st0" d="M37.9,49.4c5.8,0,10.9-2.1,15.1-6.4c4.2-4.3,6.4-9.3,6.4-15.1c0-5.8-2.1-10.9-6.4-15.1
		c-4.3-4.3-9.3-6.4-15.1-6.4c-5.8,0-10.9,2.1-15.1,6.4c-4.3,4.3-6.4,9.3-6.4,15.1c0,5.8,2.1,10.9,6.4,15.1
		C27.1,47.3,32.1,49.4,37.9,49.4z"/>
	<path class="st1" d="M117,195.6c5.8,0,10.9-2.1,15.1-6.4c4.2-4.3,6.4-9.3,6.4-15.1c0-5.8-2.1-10.9-6.4-15.1
		c-4.3-4.3-9.3-6.4-15.1-6.4c-5.8,0-10.9,2.1-15.1,6.4c-4.3,4.3-6.4,9.3-6.4,15.1c0,5.8,2.1,10.9,6.4,15.1
		C106.1,193.5,111.2,195.6,117,195.6z"/>
	<path class="st0" d="M55.4,232V86.7c-4.9,1.6-10.4,2.7-16.3,3.5C33.2,91,27,91.4,20.5,91.4c-6.7,0-13.7-0.3-20.8-1v7.1
		c9.8,0,16.6,2.4,20.1,7.2c3.6,4.8,5.4,12.3,5.4,22.3V232c0,9.4-2,15.8-5.9,19.1c-3.9,3.4-10.5,5-19.6,5v7.1
		c3.8-0.2,9.6-0.5,17.5-0.8c7.8-0.3,15.6-0.5,23.2-0.5c7.8,0,15.6,0.2,23.3,0.5c7.7,0.3,13.5,0.6,17.3,0.8v-7.1
		c-9.2,0-15.7-1.7-19.6-5C57.3,247.8,55.4,241.4,55.4,232z"/>
	<path class="st0" d="M317.6,232V86.7c-4.9,1.1-10,2-15.1,2.5c-5.2,0.6-11,1-17.5,1.2c-6.5,0.2-14.2,0.3-23.2,0.3h-54.1
		c0-16.3,0.7-28.9,2.2-37.6c1.5-8.7,3.7-15.9,6.9-21.5c4.5-7.8,10.6-14.1,18.5-18.8c7.8-4.7,17.6-7.1,29.2-7.1c4.5,0,9,0.4,13.4,1.2
		c4.5,0.8,8.2,2.1,11.1,3.9c-7.4,4-11.1,10.3-11.1,18.8c0,5.8,2.1,10.9,6.4,15.1c4.2,4.3,9.3,6.4,15.1,6.4c5.8,0,10.9-2.1,15.1-6.4
		c4.2-4.3,6.4-9.4,6.4-15.4c0-4-1-7.6-3-10.6c-2-3-4.8-5.6-8.4-7.9c-4.9-3.1-11.3-5.6-19.1-7.4c-7.8-1.8-16.5-2.7-25.9-2.7
		c-14.8,0-27.3,2.1-37.6,6.4c-10.3,4.3-18.7,9.4-25.2,15.4c-8.7,8.3-14.9,18.1-18.6,29.5c-3.7,11.4-5.5,24.3-5.5,38.6h-25.5v6.7
		h25.5V232c0,9.4-2,15.8-5.9,19.1c-3.9,3.4-10.5,5-19.6,5v7.1c3.8-0.2,9.5-0.5,17-0.8c7.5-0.3,15.4-0.5,23.7-0.5
		c8.5,0,16.8,0.2,25,0.5c8.2,0.3,14.5,0.6,19,0.8v-7.1c-9,0-16-1.6-21.2-4.9c-5.2-3.2-7.7-9.7-7.7-19.3V97.4h54.1
		c9.8,0,16.6,2.4,20.1,7.2c3.6,4.8,5.4,12.3,5.4,22.3V232c0,9.4-2,15.8-5.9,19.1c-3.9,3.4-10.5,5-19.6,5v7.1
		c3.8-0.2,9.6-0.5,17.5-0.8c7.8-0.3,15.6-0.5,23.2-0.5c7.8,0,15.6,0.2,23.3,0.5c7.7,0.3,13.5,0.6,17.3,0.8v-7.1
		c-9.2,0-15.7-1.7-19.6-5C319.5,247.8,317.6,241.4,317.6,232z"/>
	<path class="st0" d="M477,246.5c-8.5,4.9-17.8,7.4-27.9,7.4c-8.5,0-16.7-2.9-24.7-8.6c-7.9-5.7-14.4-14-19.3-25
		c-4.9-11-7.4-24.1-7.4-39.3c0-4,0.1-8.1,0.3-12.1c0.2-3.4,0.5-6.5,0.8-9.4h104.9c0-25.3-5.5-43.9-16.6-55.9
		c-11.1-12-26.5-18-46.2-18c-15.2,0-28.5,3.9-40,11.6c-11.4,7.7-20.3,18.7-26.5,32.9c-6.3,14.2-9.4,31.2-9.4,50.9
		c0,17,3.1,32.1,9.2,45.2c6.2,13.1,15,23.3,26.5,30.7c11.5,7.4,25.3,11.1,41.5,11.1c11.2,0,21-2.2,29.5-6.5c8.5-4.4,15.6-10,21.2-17
		c5.6-6.9,9.6-14.1,12.1-21.5l-6.7-2.7C492.7,232.8,485.5,241.5,477,246.5z M412.4,107.5c7.9-10.3,17.1-15.4,27.4-15.4
		c7.6,0,13.8,2.8,18.6,8.4c4.8,5.6,8.3,13,10.6,22.3c2.2,9.3,3.1,19.4,2.7,30.4h-73.2C400.2,132.5,404.9,117.2,412.4,107.5z"/>
	<path class="st0" d="M582.8,232V0c-4.9,1.6-10.4,2.7-16.3,3.5c-5.9,0.8-12.1,1.2-18.6,1.2c-6.7,0-13.7-0.3-20.8-1v7.1
		c9.8,0,16.6,2.4,20.1,7.2c3.6,4.8,5.4,12.3,5.4,22.3V232c0,9.4-2,15.8-5.9,19.1c-3.9,3.4-10.5,5-19.6,5v7.1
		c3.8-0.2,9.6-0.5,17.5-0.8c7.8-0.3,15.6-0.5,23.2-0.5c7.8,0,15.6,0.2,23.3,0.5c7.7,0.3,13.5,0.6,17.3,0.8v-7.1
		c-9.2,0-15.7-1.7-19.6-5C584.7,247.8,582.8,241.4,582.8,232z"/>
	<path class="st0" d="M780.4,249c-3.7-4.8-5.5-12.3-5.5-22.3V0c-4.9,1.6-10.4,2.7-16.3,3.5c-5.9,0.8-12.1,1.2-18.6,1.2
		c-6.7,0-13.7-0.3-20.8-1v7.1c9.8,0,16.6,2.4,20.1,7.2c3.6,4.8,5.4,12.3,5.4,22.3v64.8c-3.1-5.4-7.3-9.5-12.6-12.4
		c-8.6-4.7-17.9-7.1-27.7-7.1c-13.4,0-25.9,3.4-37.4,10.1c-11.5,6.7-20.8,16.8-27.9,30.4c-7.1,13.5-10.6,30.5-10.6,50.9
		c0,20.4,2.7,37.3,8.2,50.7c5.5,13.4,13.4,23.5,23.8,30.2c10.4,6.7,22.5,10.1,36.4,10.1c15.4,0,27.7-4.6,36.8-13.8
		c4.6-4.6,8.2-10.2,10.9-16.8v29.6c4.9-1.8,10.3-3,16.3-3.7c5.9-0.7,12.1-1,18.6-1c6.9,0,13.9,0.3,20.8,1v-7.1
		C790.7,256.2,784.1,253.8,780.4,249z M732.2,245.8c-7.6,8.1-16.1,12.1-25.5,12.1c-9.9,0-18.2-3-25-8.9c-6.8-5.9-12-14.9-15.4-26.9
		c-3.5-12-5.2-27-5.2-45.2c-0.2-28.4,4.1-49.5,12.9-63.1c8.8-13.6,19.9-20.5,33.1-20.5c8.9,0,16.7,2.1,23.3,6.4
		c6.4,4.1,11.1,10.7,14.3,19.6v99.8C742.4,230.4,738.3,239.4,732.2,245.8z"/>
</g>
</svg>
