<?xml version="1.0" encoding="UTF-8"?>
<svg id="Layer_2" data-name="Layer 2" xmlns="http://www.w3.org/2000/svg" viewBox="0 0 82.05 82.07">
  <defs>
    <style>
      .cls-1 {
        fill: #971c20;
      }
    </style>
  </defs>
  <g id="Layer_1-2" data-name="Layer 1">
    <g>
      <path class="cls-1" d="M82.05,82.07c-.18,0-.35,0-.53,0-.23,0-.45,0-.68-.01-21.84-.63-39.4-18.33-39.82-40.22,0-.27,0-.53,0-.8s0-.53,0-.79C41.44,17.94,59.65,0,82.05,0V82.07Z"/>
      <path class="cls-1" d="M0,82.07V0C22.4,0,40.61,17.94,41.02,40.24c.01,.26,.01,.53,.01,.79s0,.53-.01,.8c-.42,21.89-17.98,39.59-39.81,40.22-.23,0-.45,.01-.68,.01-.18,0-.35,0-.53,0Z"/>
    </g>
  </g>
</svg>