<?xml version="1.0" encoding="UTF-8"?>
<svg id="Layer_2" data-name="Layer 2" xmlns="http://www.w3.org/2000/svg" viewBox="0 0 100.86 100.84">
  <defs>
    <style>
      .cls-1 {
        fill: #265451;
      }
    </style>
  </defs>
  <g id="Layer_1-2" data-name="Layer 1">
    <g>
      <path class="cls-1" d="M0,100.84c0-.22,0-.43,0-.65,0-.28,0-.55,.01-.83,.78-26.84,22.53-48.42,49.43-48.94,.33,0,.65,0,.98,0s.65,0,.97,0c27.41,.52,49.46,22.9,49.46,50.42H0Z"/>
      <path class="cls-1" d="M0,0H100.86c0,27.53-22.05,49.9-49.46,50.42-.32,.01-.65,.01-.97,.01s-.65,0-.98-.01C22.55,49.9,.8,28.32,.02,1.48c0-.28-.01-.55-.01-.83C0,.43,0,.22,0,0Z"/>
    </g>
  </g>
</svg>