<?xml version="1.0" encoding="UTF-8"?>
<svg id="Layer_2" data-name="Layer 2" xmlns="http://www.w3.org/2000/svg" viewBox="0 0 100.73 100.73">
  <defs>
    <style>
      .cls-1 {
        fill: #971c20;
      }
    </style>
  </defs>
  <g id="Layer_1-2" data-name="Layer 1">
    <g>
      <path class="cls-1" d="M51.34,50.36c-.32,.01-.64,.01-.96,.01,0,.33,0,.64-.01,.97,.52,26.88,22.08,48.6,48.89,49.38,.21,0,.42,0,.62,.01h.86v-.21c-.11-27.4-22.09-49.64-49.39-50.16Z"/>
      <path class="cls-1" d="M50.36,51.35c0-.33,0-.64,0-.97-.32,0-.64,0-.97-.01C22.51,50.88,.79,72.44,.01,99.25c0,.21,0,.41-.01,.62v.87H.86c.21,0,.41,0,.62-.01,26.81-.78,48.37-22.5,48.88-49.38Z"/>
      <path class="cls-1" d="M50.36,49.4c.01,.32,.01,.64,.01,.96,.32,0,.64,0,.96,0,27.31-.51,49.28-22.75,49.39-50.15v-.21h-.21c-27.4,.11-49.64,22.09-50.16,49.4Z"/>
      <path class="cls-1" d="M49.39,50.36c.32,0,.64,0,.97,0,0-.32,0-.64,0-.96C49.85,22.09,27.61,.11,.21,0h-.21V.87c0,.2,0,.41,.01,.62C.79,28.3,22.51,49.85,49.39,50.36Z"/>
    </g>
  </g>
</svg>