<?xml version="1.0" encoding="UTF-8"?>
<svg id="Layer_2" data-name="Layer 2" xmlns="http://www.w3.org/2000/svg" viewBox="0 0 400.26 82.07">
  <defs>
    <style>
      .cls-1 {
        fill: #265451;
      }

      .cls-2 {
        fill: #971c20;
      }
    </style>
  </defs>
  <g id="Layer_1-2" data-name="Layer 1">
    <g>
      <g>
        <path class="cls-2" d="M82.05,82.07c-.18,0-.35,0-.53,0-.23,0-.45,0-.68-.01-21.84-.63-39.4-18.33-39.82-40.22,0-.27,0-.53,0-.8s0-.53,0-.79C41.44,17.94,59.65,0,82.05,0V82.07Z"/>
        <path class="cls-2" d="M0,82.07V0C22.4,0,40.61,17.94,41.02,40.24c.01,.26,.01,.53,.01,.79s0,.53-.01,.8c-.42,21.89-17.98,39.59-39.81,40.22-.23,0-.45,.01-.68,.01-.18,0-.35,0-.53,0Z"/>
      </g>
      <g>
        <path class="cls-2" d="M106.06,82.06c0-.18,0-.35,0-.53,0-.23,0-.45,.01-.68,.63-21.84,18.33-39.4,40.22-39.82,.27,0,.53,0,.8,0s.53,0,.79,0c22.3,.42,40.24,18.63,40.24,41.03H106.06Z"/>
        <path class="cls-2" d="M106.06,0h82.07c0,22.4-17.94,40.61-40.24,41.02-.26,.01-.53,.01-.79,.01s-.53,0-.8-.01c-21.89-.42-39.59-17.98-40.22-39.81,0-.23-.01-.45-.01-.68,0-.18,0-.35,0-.53Z"/>
      </g>
      <g>
        <path class="cls-2" d="M212.13,0c.18,0,.35,0,.53,0,.23,0,.45,0,.68,.01,21.84,.63,39.4,18.33,39.82,40.22,0,.27,0,.53,0,.8s0,.53,0,.79c-.42,22.3-18.63,40.24-41.03,40.24V0Z"/>
        <path class="cls-1" d="M294.18,0V82.07c-22.4,0-40.61-17.94-41.02-40.24-.01-.26-.01-.53-.01-.79s0-.53,.01-.8C253.58,18.35,271.14,.65,292.98,.02c.23,0,.45-.01,.68-.01C293.83,0,294.01,0,294.18,0Z"/>
      </g>
      <g>
        <path class="cls-1" d="M400.26,0c0,.18,0,.35,0,.53,0,.23,0,.45-.01,.68-.63,21.84-18.33,39.4-40.22,39.82-.27,0-.53,0-.8,0s-.53,0-.79,0c-22.3-.42-40.24-18.63-40.24-41.03h82.07Z"/>
        <path class="cls-1" d="M400.26,82.06h-82.07c0-22.4,17.94-40.61,40.24-41.02,.26-.01,.53-.01,.79-.01s.53,0,.8,.01c21.89,.42,39.59,17.98,40.22,39.81,0,.23,.01,.45,.01,.68,0,.18,0,.35,0,.53Z"/>
      </g>
    </g>
  </g>
</svg>