<?xml version="1.0" encoding="UTF-8"?>
<svg id="Layer_2" data-name="Layer 2" xmlns="http://www.w3.org/2000/svg" viewBox="0 0 400.27 101.08">
  <defs>
    <style>
      .cls-1 {
        fill: #265451;
      }

      .cls-2 {
        fill: #debd56;
      }
    </style>
  </defs>
  <g id="Layer_1-2" data-name="Layer 1">
    <g>
      <g>
        <path class="cls-2" d="M349.73,49.22c-.68-26.75-22.15-48.35-48.86-49.22h97.73c-26.71,.87-48.18,22.47-48.86,49.22Z"/>
        <path class="cls-2" d="M400.27,101.08h-101.08v-1.31c0,.44,.01,.87,.01,1.31h.64c27.18-.34,49.2-22.14,49.89-49.24,.69,27.1,22.71,48.9,49.89,49.24h.65Z"/>
      </g>
      <g>
        <path class="cls-1" d="M0,100.86c0-.22,0-.43,0-.65,0-.28,0-.55,.01-.83,.78-26.84,22.53-48.42,49.43-48.94,.33,0,.65,0,.98,0s.65,0,.97,0c27.41,.52,49.46,22.9,49.46,50.42H0Z"/>
        <path class="cls-1" d="M0,.02H100.86c0,27.53-22.05,49.9-49.46,50.42-.32,.01-.65,.01-.97,.01s-.65,0-.98-.01C22.55,49.93,.8,28.35,.02,1.51c0-.28-.01-.55-.01-.83C0,.46,0,.24,0,.02Z"/>
      </g>
      <g>
        <path class="cls-2" d="M195.68,100.86c0-.22,0-.43,0-.65,0-.28,0-.55,.01-.83,.78-26.84,22.53-48.42,49.43-48.94,.33,0,.65,0,.98,0s.65,0,.97,0c27.41,.52,49.46,22.9,49.46,50.42h-100.86Z"/>
        <path class="cls-1" d="M195.68,.02h100.86c0,27.53-22.05,49.9-49.46,50.42-.32,.01-.65,.01-.97,.01s-.65,0-.98-.01c-26.9-.51-48.65-22.09-49.43-48.93,0-.28-.01-.55-.01-.83,0-.22,0-.43,0-.65Z"/>
      </g>
      <g>
        <path class="cls-1" d="M97.84,50.69c0-.22,0-.43,0-.65,0-.28,0-.55,.01-.83C98.64,22.37,120.39,.79,147.29,.27c.33,0,.65,0,.98,0s.65,0,.97,0c27.41,.52,49.46,22.9,49.46,50.42H97.84Z"/>
        <path class="cls-1" d="M97.84,50.41h100.86c0,27.53-22.05,49.9-49.46,50.42-.32,.01-.65,.01-.97,.01s-.65,0-.98-.01c-26.9-.51-48.65-22.09-49.43-48.93,0-.28-.01-.55-.01-.83,0-.22,0-.43,0-.65Z"/>
      </g>
    </g>
  </g>
</svg>