<?xml version="1.0" encoding="UTF-8"?>
<svg id="Layer_2" data-name="Layer 2" xmlns="http://www.w3.org/2000/svg" viewBox="0 0 400.95 108.74">
  <defs>
    <style>
      .cls-1 {
        fill: #265451;
      }

      .cls-2 {
        fill: #971c20;
      }
    </style>
  </defs>
  <g id="Layer_1-2" data-name="Layer 1">
    <g>
      <circle class="cls-2" cx="363.61" cy="54.64" r="37.34" transform="translate(224.59 395.04) rotate(-76.33)"/>
      <g>
        <path class="cls-1" d="M54.9,54.89c-.18-.16-.36-.34-.53-.51-.18,.18-.35,.35-.53,.52-14.23,14.78-14.32,38.15-.26,53.04,.11,.12,.22,.23,.33,.34l.46,.46,.11-.11c14.73-14.85,14.87-38.71,.41-53.73Z"/>
        <path class="cls-1" d="M53.84,54.9c.17-.18,.34-.35,.52-.53-.18-.18-.35-.35-.52-.53-14.79-14.23-38.15-14.32-53.04-.26-.11,.11-.23,.22-.34,.33l-.47,.47,.46,.46c.11,.11,.23,.22,.34,.33,14.89,14.05,38.25,13.96,53.03-.27Z"/>
        <path class="cls-1" d="M54.89,53.84c-.16,.18-.34,.35-.51,.53,.17,.17,.35,.35,.52,.52,15.01,14.46,38.88,14.32,53.73-.41l.11-.11-.11-.11c-14.85-14.73-38.72-14.87-53.73-.41Z"/>
        <path class="cls-1" d="M53.84,53.84c.18,.17,.35,.34,.53,.52,.17-.17,.35-.35,.52-.52,14.46-15.01,14.32-38.88-.41-53.73l-.11-.11-.47,.47c-.11,.11-.22,.22-.33,.34-14.05,14.89-13.96,38.25,.27,53.03Z"/>
      </g>
      <g>
        <path class="cls-1" d="M158.14,54.84c.17-.18,.34-.35,.52-.53-.18-.18-.35-.35-.52-.53-14.79-14.23-38.15-14.32-53.04-.26-.11,.11-.23,.22-.34,.33l-.47,.47,.46,.46c.11,.11,.23,.22,.34,.33,14.89,14.05,38.25,13.96,53.03-.27Z"/>
        <path class="cls-1" d="M159.19,53.79c-.16,.18-.34,.35-.51,.53,.17,.17,.35,.35,.52,.52,15.01,14.46,38.88,14.32,53.73-.41l.11-.11-.11-.11c-14.85-14.73-38.72-14.87-53.73-.41Z"/>
      </g>
    </g>
  </g>
</svg>