<?xml version="1.0" encoding="UTF-8"?>
<svg id="Layer_2" data-name="Layer 2" xmlns="http://www.w3.org/2000/svg" viewBox="0 0 400.83 100.52">
  <defs>
    <style>
      .cls-1 {
        fill: #debd56;
      }

      .cls-2 {
        fill: #971c20;
      }
    </style>
  </defs>
  <g id="Layer_1-2" data-name="Layer 1">
    <g>
      <g>
        <path class="cls-1" d="M150.02,50.26c26.47-.67,49.62-23.19,50.48-49.61l-.42,99.61c-.86-26.42-23.6-49.33-50.06-50Z"/>
        <path class="cls-1" d="M100.67,100.13s0,0,0,0V.26h0c-.43,0,.43,.01,0,.01V.91c.34,26.89,22.53,48.67,49.34,49.35-26.81,.68-49,22.98-49.34,49.87h0Z"/>
      </g>
      <g>
        <path class="cls-1" d="M50,51.57c.67,26.47,24.25,47.7,50.67,48.56l-99.01,.13c26.42-.86,47.67-22.23,48.34-48.69Z"/>
        <path class="cls-1" d="M0,.26H.01s100.66,0,100.66,0V1.56c0-.43,0-.86,0-1.29h0c-26.89,.34-49.99,21.9-50.67,48.71C49.32,22.17,27.54,.61,.65,.27H0s0,0,0,0Z"/>
      </g>
      <g>
        <g>
          <path class="cls-1" d="M250.01,50.25c-.67-26.47-23.09-48.74-49.51-49.61l97.84-.39c-26.42,.86-47.66,23.53-48.33,49.99Z"/>
          <path class="cls-1" d="M300,100.26h-99.93c0,.43,0-.43,0,0h0c26.89-.34,49.25-23.19,49.93-50.01,.68,26.81,22.46,49.66,49.35,50h.65Z"/>
        </g>
        <g>
          <path class="cls-2" d="M250.01,50.25c26.47-.67,49.13-21.91,49.99-48.33V98.6c-.86-26.42-23.53-47.67-49.99-48.35Z"/>
          <path class="cls-2" d="M200.08,100.26s0,0,0,0l.42-99.61h0c-.43,0,.43,0,0,0h0c.34,26.89,22.7,48.93,49.51,49.61-26.81,.68-49.59,23.12-49.93,50.01h0Z"/>
        </g>
      </g>
      <g>
        <path class="cls-2" d="M351.54,50.26c-.32,.01-.64,.01-.96,.01,0,.32,0,.64-.01,.97,.52,26.82,22.03,48.5,48.78,49.27,.21,0,.42,0,.62,.01h.86v-.21c-.11-27.34-22.04-49.54-49.29-50.05Z"/>
        <path class="cls-2" d="M350.56,51.24c0-.32,0-.64,0-.97-.32,0-.64,0-.97-.01-26.82,.52-48.5,22.03-49.27,48.78,0,.21,0,.41-.01,.61v.87h.86c.21,0,.41,0,.62-.01,26.75-.77,48.27-22.45,48.78-49.27Z"/>
        <path class="cls-2" d="M350.56,49.29c.01,.32,.01,.64,.01,.96,.32,0,.64,0,.96,0,27.25-.51,49.17-22.7,49.29-50.04v-.21h-.21c-27.34,.11-49.54,22.04-50.05,49.29Z"/>
        <path class="cls-2" d="M349.59,50.26c.32,0,.64,0,.97,0,0-.32,0-.64,0-.96-.51-27.25-22.7-49.18-50.05-49.29h-.21V.87c0,.2,0,.41,.01,.61,.77,26.75,22.45,48.27,49.27,48.78Z"/>
      </g>
    </g>
  </g>
</svg>